<svg id="Layer_1" data-name="Layer 1" xmlns="http://www.w3.org/2000/svg" viewBox="0 0 128 128"><defs><style>.cls-1{fill:#aedefc;}.cls-1,.cls-2,.cls-3{stroke:#383f51;stroke-linecap:round;stroke-linejoin:round;stroke-width:2px;}.cls-2{fill:#596e79;}.cls-3,.cls-4{fill:none;}</style></defs><title>Boo ghost</title><path class="cls-1" d="M19,119c6,2.47,16.1,4,27,4,35.35,0,64.3-33.66,64-69-.1-11.27-1-21-4-21-2.76,0-4,3-5,8-.76,3.79-2.69,7-6,7s-6-8.51-6-19C89,15.39,78.21,4.36,64.9,4.36A19.61,19.61,0,0,0,49,12c-1.9,2.59-5,7-5,16,0,11-3.13,20-7,20-3.31,0-5.24-3.21-6-7-1-5-2.24-8-5-8-2.21,0-4,6.27-4,14,0,25.43,15,32,15,52.52A19.72,19.72,0,0,1,19,119Z"/><path class="cls-2" d="M71.07,41h-.14c-1.47,0-2,.62-1.91,2.62,0,.71.7,3.49,1.91,3.37h.14c1.21.11,1.86-2.66,1.91-3.37C73.11,41.62,72.54,41,71.07,41Z"/><path class="cls-3" d="M73,31a4,4,0,0,0,8,0"/><path class="cls-3" d="M57,32a4,4,0,1,0,8,0"/><rect class="cls-4" width="128" height="128"/></svg>