<svg xmlns="http://www.w3.org/2000/svg" viewBox="0 0 512 512"><g fill="#333">
<path d="M256 192.78c17.42 0 33.66-6.4 43.55-16.6h-87.1c9.88 10.2 26.13 16.6
 43.55 16.6zM222.24 118.55c0-11.52-7.05-20.88-15.7-20.88s-15.72 9.37-15.72 
 20.88c0 11.5 7.05 20.87 15.71 20.87s15.71-9.36 15.71-20.87zM305.46 97.67c-8.66 
 0-15.7 9.37-15.7 20.88 0 11.5 7.04 20.87 15.7 20.87 8.67 0 15.71-9.36 15.71-20.87 
 0-11.52-7.04-20.88-15.7-20.88z"/></g>
<path d="M401.72 285.99c-13.56-49.47-13.67-98.07-13.66-100.11V143.6c0-72.82-59
.24-132.06-132.06-132.06S123.94 70.79 123.94 143.6v42.27c0 2.04-.1 50.64-13.66 
100.1-17.6 64.2-50 99.52-93.94 102.62 1.27 7.4 5.09 20.68 16.54 30.44 13.47 11.47
 33.82 15.31 60.48 11.4 58.78-8.6 76.32 3.53 95.56 35.87 21.2 35.62 67.08 34.16 
 67.08 34.16s45.97 1.3 67.07-34.16c19.25-32.34 36.78-44.47 95.56-35.86 26.67 3.9
  47.02.06 60.48-11.41 11.46-9.76 15.27-23.03 16.55-30.45-43.95-3.1-76.35-38.4-93.
  94-102.6zM179.27 118.55c0-17.88 12.23-32.43 27.26-32.43 15.03 0 27.26 14.55 27.26 
  32.43s-12.23 32.42-27.26 32.42c-15.03 0-27.26-14.55-27.26-32.42zM316 173.1c-10.03 
  18.97-33.58 31.23-60 31.23s-49.96-12.26-59.98-31.23a5.77 5.77 0 015.1-8.47h109.77a5.
  78 5.78 0 015.11 8.47zm-10.53-22.13c-15.03 0-27.25-14.55-27.25-32.42s12.22-32.43 27.
  25-32.43 27.26 14.55 27.26 32.43-12.23 32.42-27.26 32.42z" fill="#e6e6e6"/>
<path d="M502.06 377.27c-42 0-71.99-31.67-89.15-94.14-13.18-47.98-13.3-96.75-13.3-97.
25v-42.27C399.6 64.42 335.17 0 256 0S112.4 64.42 112.4 143.6v42.29c0 .48-.13 49.26-13.31 
97.24-17.17 62.47-47.16 94.14-89.15 94.14a5.77 5.77 0 00-5.77 5.82c0 1.1.45 26.92 21.09 
44.62 16.11 13.82 39.59 18.58 69.78 14.17 54.89-8.04 67.74 3.07 83.96 30.34 22.45 37.73 
64.82 39.78 77 39.78 13.52 0 54.55-2.05 77-39.78 16.23-27.27 29.07-38.38 83.96-30.35 30.19
 4.42 53.67-.34 69.78-14.16 20.64-17.7 21.08-43.53 21.1-44.62a5.77 5.77 0
  00-5.78-5.82zm-22.94 41.77c-13.47 11.47-33.82 15.31-60.48 11.4-58.8-8.6-76.32 
  3.54-95.57 35.87-21.1 35.47-67.07 34.16-67.07 34.16s-45.88 1.46-67.08-34.16c-19.24-32.
  33-36.78-44.47-95.56-35.86-26.66 3.9-47 .06-60.48-11.41-11.45-9.76-15.27-23.
  03-16.54-30.44 43.95-3.1 76.35-38.42 93.94-102.6 13.55-49.48 13.66-98.08 13.66-100
  .11V143.6c0-72.82 59.24-132.06 132.06-132.06S388.05 70.79 388.05 143.6v42.27c0 2.04
  .11 50.64 13.67 100.1 17.59 64.2 49.99 99.52 93.93 102.61-1.26 7.43-5.08 20.7-16.53 
  30.45z"/><path d="M233.79 118.55c0-17.88-12.23-32.43-27.26-32.43-15.03 0-27.26 
  14.55-27.26 32.42s12.23 32.43 27.26 32.43c15.03 0 27.26-14.55 27.26-32.42zm-42.97 
  0c0-11.52 7.05-20.88 15.71-20.88s15.71 9.37 15.71 20.88c0 11.5-7.05 20.87-15.7 
  20.87s-15.72-9.36-15.72-20.87zM305.46 86.12c-15.03 0-27.25 14.55-27.25 32.43s12.22
   32.42 27.25 32.42 27.26-14.55 27.26-32.42-12.23-32.43-27.26-32.43zm0 53.3c-8.66
    0-15.7-9.36-15.7-20.87 0-11.52 7.04-20.88 15.7-20.88 8.67 0 15.71 9.36 15.71
     20.87 0 11.52-7.04 20.88-15.7 20.88zM310.89 164.63H201.1a5.78 5.78 0 00-5.1 
     8.47c10.03 18.97 33.57 31.23 59.99 31.23s49.96-12.26 60-31.23a5.77 5.77 0
      00-5.11-8.47zm-54.9 28.15c-17.41 0-33.66-6.4-43.55-16.6h87.11c-9.89 10.2-26.13
       16.6-43.55 16.6z"/></svg>