<svg id="Layer_1" data-name="Layer 1" xmlns="http://www.w3.org/2000/svg" viewBox="0 0 128 128"><defs><style>.cls-1{fill:#aedefc;}.cls-1,.cls-2,.cls-3{stroke:#383f51;stroke-linecap:round;stroke-linejoin:round;stroke-width:2px;}.cls-2{fill:#ff7d7d;}.cls-3{fill:#57617d;}.cls-4{fill:none;}</style></defs><title>Ghost in love</title><path class="cls-1" d="M94.6,91C85.9,77.49,77,62.4,77,47.66a84.29,84.29,0,0,1,5.27-29.39C86.14,7.85,74-1.34,65,5.08,41.91,21.43,27,43.33,27,76.54a51.81,51.81,0,0,0,15,36.85c8.65,8.65,16.69,12.18,19.55,10C64.62,121,62,112.62,61,110c13.79,11.6,21.91,15.7,24.79,13.44,2-1.59,1.56-6-1.79-14.44,5.83,4.22,17,6.75,20,3.44C107.82,108.07,99.48,98.57,94.6,91Z"/><path class="cls-2" d="M46,37.2C46,41,42,46,37,50c0-5-2.93-6.57-4.21-8A7,7,0,0,1,31,37.33,4.33,4.33,0,0,1,35.33,33,3,3,0,0,1,38,36c0-2,2.52-3,4-3A4,4,0,0,1,46,37.2Z"/><path class="cls-2" d="M67,37.69c0,4.2-4.53,9.84-10.2,14.31,0-5.59-3.32-7.34-4.77-8.94a7.75,7.75,0,0,1-2-5.22A4.88,4.88,0,0,1,54.91,33,3.08,3.08,0,0,1,58,36c0-2.24,2.79-3,4.47-3A4.49,4.49,0,0,1,67,37.69Z"/><path class="cls-3" d="M56,64c0,5-3.47,9-7.74,9A7.33,7.33,0,0,1,41,65.61a4.52,4.52,0,0,1,1-2.82A6.13,6.13,0,0,0,46.81,65c5,0,5-6,7.52-6C55.61,59,56,61,56,64Z"/><rect class="cls-4" width="128" height="128"/></svg>