<svg aria-hidden="true" style="position:absolute;width:0;height:0" xmlns="http://www.w3.org/2000/svg" overflow="hidden"><defs><symbol id="icon-boo-ghost1" viewBox="0 0 32 32"><path fill="var(--color1, #aedefc)" stroke-linejoin="round" stroke-linecap="round" stroke-width=".5" stroke="#000" d="M4.75 29.75c1.5.62 4.03 1 6.75 1 8.84 0 16.07-8.41 16-17.25-.03-2.82-.25-5.25-1-5.25-.69 0-1 .75-1.25 2-.19.95-.67 1.75-1.5 1.75s-1.5-2.13-1.5-4.75a6.1 6.1 0 00-6.03-6.16h-.09a4.9 4.9 0 00-3.87 1.9l-.01.01A6.1 6.1 0 0011 7c0 2.75-.78 5-1.75 5-.83 0-1.31-.8-1.5-1.75-.25-1.25-.56-2-1.25-2-.55 0-1 1.57-1 3.5 0 6.36 3.75 8 3.75 13.13a4.93 4.93 0 01-4.48 4.87h-.02z"/><path fill="var(--color2, #596e79)" stroke-linejoin="round" stroke-linecap="round" stroke-width=".5" stroke="#000" d="M17.77 10.25h-.04c-.37 0-.5.15-.48.66 0 .17.18.87.48.84h.04c.3.02.46-.67.47-.85.04-.5-.1-.65-.47-.65z"/><path stroke-linejoin="round" stroke-linecap="round" stroke-width=".5" d="M18.25 7.75a1 1 0 002 0M14.25 8a1 1 0 002 0"/></symbol><symbol 
id="icon-ghost" viewBox="0 0 32 32"><path fill="var(--color3, #333)" d="M16 12.05c1.09 0 2.1-.4 2.72-1.04h-5.44A3.84 3.84 0 0016 12.05zM13.89 7.4c0-.71-.44-1.3-.98-1.3s-.98.59-.98 1.3c0 .73.44 1.31.98 1.31s.98-.58.98-1.3zM19.1 6.1c-.55 0-.99.59-.99 1.3s.44 1.31.98 1.31.98-.58.98-1.3-.44-1.3-.98-1.3z"/><path fill="var(--color4, #e6e6e6)" d="M25.1 17.87c-.84-3.09-.85-6.13-.85-6.25V8.97a8.26 8.26 0 00-16.5 0v2.65c0 .12-.01 3.16-.86 6.25-1.1 4.02-3.12 6.22-5.87 6.42.08.46.32 1.29 1.03 1.9.85.72 2.12.96 3.78.71 3.68-.53 4.77.22 5.98 2.24 1.32 2.23 4.19 2.14 4.19 2.14s2.87.08 4.2-2.14c1.2-2.02 2.29-2.78 5.97-2.24 1.66.25 2.93 0 3.77-.71.72-.61.96-1.44 1.04-1.9-2.75-.2-4.77-2.4-5.87-6.42zM11.2 7.41c0-1.12.77-2.03 1.7-2.03s1.71.91 1.71 2.03-.76 2.02-1.7 2.02-1.7-.9-1.7-2.02zm8.55 3.4c-.63 1.2-2.1 1.96-3.75 1.96s-3.12-.77-3.75-1.95a.36.36 0 01.32-.53h6.86c.13 0 .24.07.3.17s.08.25.02.36zm-.66-1.37c-.94 0-1.7-.91-1.7-2.03s.76-2.03 1.7-2.03 1.7.91 1.7 2.03-.76 2.03-1.7 2.03z"/><path fill="var(--color5, #000)" d="M31.38 23.58c-2.62 0-4.5-1.98-5.57-5.88-.83-3-.83-6.05-.83-6.08V8.98a8.98 8.98 0 00-17.96 0v2.64c0 .03 0 3.08-.83 6.08-1.07 3.9-2.94 5.88-5.57 5.88-.1 0-.19.04-.25.1s-.11.17-.11.26a4 4 0 001.32 2.8c1 .86 2.47 1.16 4.36.88 3.43-.5 4.23.2 5.25 1.9 1.4 2.35 4.05 2.48 4.8 2.48.85 0 3.42-.13 4.82-2.48 1.02-1.7 1.82-2.4 5.25-1.9 1.89.27 3.35-.02 4.36-.89a3.99 3.99 0 001.32-2.79.36.36 0 00-.36-.36zm-1.43 2.61c-.85.72-2.12.96-3.78.71-3.68-.53-4.78.22-5.98 2.25-1.32 2.21-4.19 2.13-4.19 2.13s-2.87.1-4.2-2.13c-1.2-2.03-2.3-2.78-5.97-2.25-1.66.25-2.93 0-3.77-.7a3.22 3.22 0 01-1.04-1.91c2.75-.2 4.77-2.4 5.87-6.41.85-3.1.86-6.13.86-6.26V8.98a8.26 8.26 0 0116.5 0v2.64c0 .13.01 3.16.86 6.26 1.1 4 3.12 6.21 5.87 6.4-.08.47-.32 1.3-1.04 1.91z"/><path fill="var(--color5, #000)" d="M14.61 7.4c0-1.1-.76-2.02-1.7-2.02s-1.7.91-1.7 2.03.76 2.02 1.7 2.02 1.7-.9 1.7-2.02zm-2.68 0c0-.71.44-1.3.98-1.3s.98.59.98 1.3c0 .73-.44 1.31-.98 1.31s-.98-.58-.98-1.3zM19.1 5.38c-.95 0-1.71.91-1.71 2.03s.76 2.02 1.7 2.02 1.7-.9 1.7-2.02-.76-2.03-1.7-2.03zm0 3.33c-.55 0-.99-.58-.99-1.3s.44-1.3.98-1.3.98.58.98 1.3-.44 1.3-.98 1.3zM19.43 10.29h-6.86c-.13 0-.25.07-.31.17s-.07.25-.01.36c.63 1.18 2.1 1.95 3.75 1.95s3.12-.77 3.75-1.95a.36.36 0 00-.32-.53zM16 12.05c-1.09 0-2.1-.4-2.72-1.04h5.44A3.84 3.84 0 0116 12.05z"/></symbol>
<symbol id="icon-ghost-in-love" viewBox="0 0 32 32"><path fill="var(--color1, #aedefc)" stroke-linejoin="round" stroke-linecap="round" stroke-width=".5" stroke="#000" d="M23.65 22.75c-2.17-3.38-4.4-7.15-4.4-10.84 0 0 0 0 0 0 0-2.64.48-5.16 1.37-7.49l-.05.15c.97-2.6-2.07-4.9-4.32-3.3-5.77 4.09-9.5 9.56-9.5 17.87v.1c0 3.55 1.43 6.77 3.75 9.1h0c2.16 2.17 4.17 3.05 4.89 2.5.77-.59.11-2.68-.14-3.34 3.45 2.9 5.48 3.92 6.2 3.36.5-.4.39-1.5-.45-3.61 1.46 1.05 4.25 1.69 5 .86.96-1.1-1.13-3.47-2.35-5.36z"/><path fill="var(--color6, #ff7d7d)" stroke-linejoin="round" stroke-linecap="round" stroke-width=".5" stroke="#000" d="M11.5 9.3c0 .95-1 2.2-2.25 3.2 0-1.25-.73-1.64-1.05-2-.28-.3-.45-.72-.45-1.17v0c0-.6.48-1.08 1.08-1.08v0c.38.04.67.36.67.75 0 0 0 0 0 0v0c0-.5.63-.75 1-.75 0 0 0 0 0 0a1 1 0 011 1v.05h0zM16.75 9.42c0 1.05-1.13 2.46-2.55 3.58 0-1.4-.83-1.83-1.2-2.23-.3-.35-.5-.8-.5-1.3v-.01 0c.01-.67.56-1.21 1.23-1.21 0 0 0 0 0 0v0s0 0 0 0c.42 0 .76.33.77.75h0c0-.56.7-.75 1.12-.75 0 0 0 0 0 0 .63 0 1.13.5 1.13 1.12v.06h0z"/><path fill="var(--color7, #57617d)" stroke-linejoin="round" stroke-linecap="round" stroke-width=".5" stroke="#000" d="M14 16c0 1.25-.87 2.25-1.94 2.25-1-.01-1.81-.83-1.81-1.83v-.02 0c0-.26.1-.51.25-.7h0c.28.34.7.55 1.18.55h.02c1.25 0 1.25-1.5 1.88-1.5.32 0 .42.5.42 1.25z"/></symbol></defs></svg>